<mxfile host="app.diagrams.net" modified="2023-09-10T00:23:52.975Z" agent="Mozilla/5.0 (Windows NT 10.0; Win64; x64) AppleWebKit/537.36 (KHTML, like Gecko) Chrome/109.0.0.0 Safari/537.36" etag="zCKZgdMVVA8pvYl5OntB" version="21.7.2" type="github">
  <diagram id="C5RBs43oDa-KdzZeNtuy" name="Page-1">
    <mxGraphModel dx="874" dy="452" grid="1" gridSize="10" guides="1" tooltips="1" connect="1" arrows="1" fold="1" page="1" pageScale="1" pageWidth="827" pageHeight="1169" math="0" shadow="0">
      <root>
        <mxCell id="WIyWlLk6GJQsqaUBKTNV-0" />
        <mxCell id="WIyWlLk6GJQsqaUBKTNV-1" parent="WIyWlLk6GJQsqaUBKTNV-0" />
        <mxCell id="uDZbCRR8bxzwmYcP82YN-36" value="" style="edgeStyle=orthogonalEdgeStyle;rounded=0;orthogonalLoop=1;jettySize=auto;html=1;" edge="1" parent="WIyWlLk6GJQsqaUBKTNV-1" source="uDZbCRR8bxzwmYcP82YN-34" target="uDZbCRR8bxzwmYcP82YN-35">
          <mxGeometry relative="1" as="geometry" />
        </mxCell>
        <mxCell id="uDZbCRR8bxzwmYcP82YN-34" value="Inicio" style="html=1;dashed=0;whiteSpace=wrap;shape=mxgraph.dfd.start" vertex="1" parent="WIyWlLk6GJQsqaUBKTNV-1">
          <mxGeometry x="320" y="10" width="80" height="30" as="geometry" />
        </mxCell>
        <mxCell id="uDZbCRR8bxzwmYcP82YN-68" value="" style="edgeStyle=orthogonalEdgeStyle;rounded=0;orthogonalLoop=1;jettySize=auto;html=1;" edge="1" parent="WIyWlLk6GJQsqaUBKTNV-1" source="uDZbCRR8bxzwmYcP82YN-35" target="uDZbCRR8bxzwmYcP82YN-38">
          <mxGeometry relative="1" as="geometry" />
        </mxCell>
        <mxCell id="uDZbCRR8bxzwmYcP82YN-35" value="Nome como String" style="whiteSpace=wrap;html=1;dashed=0;" vertex="1" parent="WIyWlLk6GJQsqaUBKTNV-1">
          <mxGeometry x="300" y="70" width="120" height="60" as="geometry" />
        </mxCell>
        <mxCell id="uDZbCRR8bxzwmYcP82YN-39" value="" style="edgeStyle=orthogonalEdgeStyle;rounded=0;orthogonalLoop=1;jettySize=auto;html=1;" edge="1" parent="WIyWlLk6GJQsqaUBKTNV-1" source="uDZbCRR8bxzwmYcP82YN-37" target="uDZbCRR8bxzwmYcP82YN-38">
          <mxGeometry relative="1" as="geometry" />
        </mxCell>
        <mxCell id="uDZbCRR8bxzwmYcP82YN-37" value="Nome" style="shape=manualInput;whiteSpace=wrap;html=1;dashed=0;size=15;" vertex="1" parent="WIyWlLk6GJQsqaUBKTNV-1">
          <mxGeometry x="310" y="150" width="100" height="50" as="geometry" />
        </mxCell>
        <mxCell id="uDZbCRR8bxzwmYcP82YN-42" value="" style="edgeStyle=orthogonalEdgeStyle;rounded=0;orthogonalLoop=1;jettySize=auto;html=1;" edge="1" parent="WIyWlLk6GJQsqaUBKTNV-1" source="uDZbCRR8bxzwmYcP82YN-38" target="uDZbCRR8bxzwmYcP82YN-40">
          <mxGeometry relative="1" as="geometry" />
        </mxCell>
        <mxCell id="uDZbCRR8bxzwmYcP82YN-38" value="Idade como inteiro" style="whiteSpace=wrap;html=1;dashed=0;" vertex="1" parent="WIyWlLk6GJQsqaUBKTNV-1">
          <mxGeometry x="300" y="220" width="120" height="60" as="geometry" />
        </mxCell>
        <mxCell id="uDZbCRR8bxzwmYcP82YN-44" value="" style="edgeStyle=orthogonalEdgeStyle;rounded=0;orthogonalLoop=1;jettySize=auto;html=1;" edge="1" parent="WIyWlLk6GJQsqaUBKTNV-1" source="uDZbCRR8bxzwmYcP82YN-40" target="uDZbCRR8bxzwmYcP82YN-43">
          <mxGeometry relative="1" as="geometry" />
        </mxCell>
        <mxCell id="uDZbCRR8bxzwmYcP82YN-40" value="Idade" style="shape=manualInput;whiteSpace=wrap;html=1;dashed=0;size=15;" vertex="1" parent="WIyWlLk6GJQsqaUBKTNV-1">
          <mxGeometry x="310" y="310" width="100" height="50" as="geometry" />
        </mxCell>
        <mxCell id="uDZbCRR8bxzwmYcP82YN-55" style="edgeStyle=orthogonalEdgeStyle;rounded=0;orthogonalLoop=1;jettySize=auto;html=1;entryX=0.5;entryY=0;entryDx=0;entryDy=0;" edge="1" parent="WIyWlLk6GJQsqaUBKTNV-1" source="uDZbCRR8bxzwmYcP82YN-43" target="uDZbCRR8bxzwmYcP82YN-54">
          <mxGeometry relative="1" as="geometry" />
        </mxCell>
        <mxCell id="uDZbCRR8bxzwmYcP82YN-62" value="Não" style="edgeStyle=orthogonalEdgeStyle;rounded=0;orthogonalLoop=1;jettySize=auto;html=1;entryX=0.5;entryY=0;entryDx=0;entryDy=0;entryPerimeter=0;" edge="1" parent="WIyWlLk6GJQsqaUBKTNV-1" source="uDZbCRR8bxzwmYcP82YN-43" target="uDZbCRR8bxzwmYcP82YN-57">
          <mxGeometry relative="1" as="geometry" />
        </mxCell>
        <mxCell id="uDZbCRR8bxzwmYcP82YN-43" value="Idade &amp;gt;60" style="rhombus;whiteSpace=wrap;html=1;dashed=0;" vertex="1" parent="WIyWlLk6GJQsqaUBKTNV-1">
          <mxGeometry x="320" y="390" width="80" height="80" as="geometry" />
        </mxCell>
        <mxCell id="uDZbCRR8bxzwmYcP82YN-60" value="Sim" style="edgeStyle=orthogonalEdgeStyle;rounded=0;orthogonalLoop=1;jettySize=auto;html=1;entryX=0.5;entryY=0;entryDx=0;entryDy=0;entryPerimeter=0;" edge="1" parent="WIyWlLk6GJQsqaUBKTNV-1" source="uDZbCRR8bxzwmYcP82YN-54" target="uDZbCRR8bxzwmYcP82YN-59">
          <mxGeometry relative="1" as="geometry" />
        </mxCell>
        <mxCell id="uDZbCRR8bxzwmYcP82YN-61" value="Não" style="edgeStyle=orthogonalEdgeStyle;rounded=0;orthogonalLoop=1;jettySize=auto;html=1;entryX=0.5;entryY=0;entryDx=0;entryDy=0;entryPerimeter=0;" edge="1" parent="WIyWlLk6GJQsqaUBKTNV-1" source="uDZbCRR8bxzwmYcP82YN-54" target="uDZbCRR8bxzwmYcP82YN-58">
          <mxGeometry relative="1" as="geometry" />
        </mxCell>
        <mxCell id="uDZbCRR8bxzwmYcP82YN-54" value="Idade &amp;gt;80" style="rhombus;whiteSpace=wrap;html=1;dashed=0;" vertex="1" parent="WIyWlLk6GJQsqaUBKTNV-1">
          <mxGeometry x="414" y="460" width="80" height="80" as="geometry" />
        </mxCell>
        <mxCell id="uDZbCRR8bxzwmYcP82YN-78" style="edgeStyle=orthogonalEdgeStyle;rounded=0;orthogonalLoop=1;jettySize=auto;html=1;entryX=0.5;entryY=0;entryDx=0;entryDy=0;entryPerimeter=0;" edge="1" parent="WIyWlLk6GJQsqaUBKTNV-1" source="uDZbCRR8bxzwmYcP82YN-57" target="uDZbCRR8bxzwmYcP82YN-77">
          <mxGeometry relative="1" as="geometry" />
        </mxCell>
        <mxCell id="uDZbCRR8bxzwmYcP82YN-57" value="Comum" style="strokeWidth=2;html=1;shape=mxgraph.flowchart.display;whiteSpace=wrap;" vertex="1" parent="WIyWlLk6GJQsqaUBKTNV-1">
          <mxGeometry x="220" y="480" width="70" height="40" as="geometry" />
        </mxCell>
        <mxCell id="uDZbCRR8bxzwmYcP82YN-65" style="edgeStyle=orthogonalEdgeStyle;rounded=0;orthogonalLoop=1;jettySize=auto;html=1;entryX=0;entryY=0.667;entryDx=0;entryDy=0;entryPerimeter=0;" edge="1" parent="WIyWlLk6GJQsqaUBKTNV-1" source="uDZbCRR8bxzwmYcP82YN-58" target="uDZbCRR8bxzwmYcP82YN-63">
          <mxGeometry relative="1" as="geometry" />
        </mxCell>
        <mxCell id="uDZbCRR8bxzwmYcP82YN-58" value="Prioridade" style="strokeWidth=2;html=1;shape=mxgraph.flowchart.display;whiteSpace=wrap;" vertex="1" parent="WIyWlLk6GJQsqaUBKTNV-1">
          <mxGeometry x="325" y="540" width="70" height="40" as="geometry" />
        </mxCell>
        <mxCell id="uDZbCRR8bxzwmYcP82YN-64" style="edgeStyle=orthogonalEdgeStyle;rounded=0;orthogonalLoop=1;jettySize=auto;html=1;entryX=1.017;entryY=0.617;entryDx=0;entryDy=0;entryPerimeter=0;" edge="1" parent="WIyWlLk6GJQsqaUBKTNV-1" source="uDZbCRR8bxzwmYcP82YN-59" target="uDZbCRR8bxzwmYcP82YN-63">
          <mxGeometry relative="1" as="geometry" />
        </mxCell>
        <mxCell id="uDZbCRR8bxzwmYcP82YN-59" value="80+" style="strokeWidth=2;html=1;shape=mxgraph.flowchart.display;whiteSpace=wrap;" vertex="1" parent="WIyWlLk6GJQsqaUBKTNV-1">
          <mxGeometry x="530" y="540" width="70" height="40" as="geometry" />
        </mxCell>
        <mxCell id="uDZbCRR8bxzwmYcP82YN-81" style="edgeStyle=orthogonalEdgeStyle;rounded=0;orthogonalLoop=1;jettySize=auto;html=1;" edge="1" parent="WIyWlLk6GJQsqaUBKTNV-1" source="uDZbCRR8bxzwmYcP82YN-63">
          <mxGeometry relative="1" as="geometry">
            <mxPoint x="480" y="730" as="targetPoint" />
          </mxGeometry>
        </mxCell>
        <mxCell id="uDZbCRR8bxzwmYcP82YN-63" value="" style="verticalLabelPosition=bottom;verticalAlign=top;html=1;shape=mxgraph.flowchart.on-page_reference;" vertex="1" parent="WIyWlLk6GJQsqaUBKTNV-1">
          <mxGeometry x="460" y="600" width="40" height="45" as="geometry" />
        </mxCell>
        <mxCell id="uDZbCRR8bxzwmYcP82YN-75" value="Fim" style="html=1;dashed=0;whiteSpace=wrap;shape=mxgraph.dfd.start" vertex="1" parent="WIyWlLk6GJQsqaUBKTNV-1">
          <mxGeometry x="440" y="730" width="80" height="30" as="geometry" />
        </mxCell>
        <mxCell id="uDZbCRR8bxzwmYcP82YN-79" style="edgeStyle=orthogonalEdgeStyle;rounded=0;orthogonalLoop=1;jettySize=auto;html=1;entryX=0;entryY=0.5;entryDx=0;entryDy=0;entryPerimeter=0;" edge="1" parent="WIyWlLk6GJQsqaUBKTNV-1" source="uDZbCRR8bxzwmYcP82YN-77" target="uDZbCRR8bxzwmYcP82YN-75">
          <mxGeometry relative="1" as="geometry" />
        </mxCell>
        <mxCell id="uDZbCRR8bxzwmYcP82YN-77" value="" style="verticalLabelPosition=bottom;verticalAlign=top;html=1;shape=mxgraph.flowchart.on-page_reference;" vertex="1" parent="WIyWlLk6GJQsqaUBKTNV-1">
          <mxGeometry x="235" y="600" width="40" height="45" as="geometry" />
        </mxCell>
      </root>
    </mxGraphModel>
  </diagram>
</mxfile>
